<svg xmlns="http://www.w3.org/2000/svg" width="77" height="77" viewBox="0 0 77 77">
    <defs>
        <filter id="7tlifjsi2a" color-interpolation-filters="auto">
            <feColorMatrix in="SourceGraphic" values="0 0 0 0 0.603922 0 0 0 0 0.635294 0 0 0 0 0.674510 0 0 0 1.000000 0"/>
        </filter>
    </defs>
    <g fill="none" fill-rule="evenodd">
        <g>
            <g>
                <g filter="url(#7tlifjsi2a)" transform="translate(-920 -407) translate(490 142) translate(400 240)">
                    <g>
                        <path d="M0 0L77 0 77 77 0 77z" transform="translate(30 25)"/>
                        <path fill="#000" fill-rule="nonzero" d="M38.5 19.25c3.561 0 6.417-2.887 6.417-6.417 0-1.219-.321-2.342-.93-3.304L38.5 0l-5.486 9.529c-.61.962-.93 2.085-.93 3.304 0 3.53 2.887 6.417 6.416 6.417zm19.25 9.625H41.708v-6.417h-6.416v6.417H19.25c-5.326 0-9.625 4.3-9.625 9.625v28.875c0 1.765 1.444 3.208 3.208 3.208h51.334c1.764 0 3.208-1.443 3.208-3.208V38.5c0-5.326-4.3-9.625-9.625-9.625zm3.208 35.292H16.042v-9.625c2.887-.032 5.646-1.187 7.7-3.24l3.497-3.434 3.433 3.433c4.203 4.203 11.518 4.171 15.688 0l3.465-3.433 3.433 3.433c2.054 2.054 4.813 3.209 7.7 3.24v9.626zm0-14.438c-1.636-.032-3.176-.642-4.33-1.829l-6.835-6.833-6.865 6.833c-2.375 2.375-6.513 2.375-8.888 0l-6.833-6.833L20.34 47.9c-1.123 1.155-2.663 1.797-4.3 1.83V38.5c0-1.765 1.444-3.208 3.209-3.208h38.5c1.765 0 3.208 1.443 3.208 3.208v11.23z" transform="translate(30 25)"/>
                    </g>
                </g>
            </g>
        </g>
    </g>
</svg>
