<svg xmlns="http://www.w3.org/2000/svg" width="77" height="78" viewBox="0 0 77 78">
    <defs>
        <filter id="5vnwsjusqa" color-interpolation-filters="auto">
            <feColorMatrix in="SourceGraphic" values="0 0 0 0 0.603922 0 0 0 0 0.635294 0 0 0 0 0.674510 0 0 0 1.000000 0"/>
        </filter>
    </defs>
    <g fill="none" fill-rule="evenodd">
        <g>
            <g>
                <g filter="url(#5vnwsjusqa)" transform="translate(-520 -1062) translate(490 142) translate(0 878)">
                    <g>
                        <path d="M0 0L77 0 77 77 0 77z" transform="translate(30 42.5)"/>
                        <path fill="#000" fill-rule="nonzero" d="M38.5 9.625L3.208 28.875l12.834 6.994v19.25L38.5 67.375l22.458-12.256V35.87l6.417-3.497v22.17h6.417V28.875L38.5 9.625zm21.88 19.25L38.5 40.81 16.62 28.875 38.5 16.94l21.88 11.935zm-5.838 22.426L38.5 60.06l-16.042-8.759V39.366L38.5 48.125l16.042-8.759v11.935z" transform="translate(30 42.5)"/>
                    </g>
                </g>
            </g>
        </g>
    </g>
</svg>
