<svg xmlns="http://www.w3.org/2000/svg" width="77" height="77" viewBox="0 0 77 77">
    <defs>
        <filter id="67jknwssia" color-interpolation-filters="auto">
            <feColorMatrix in="SourceGraphic" values="0 0 0 0 0.603922 0 0 0 0 0.635294 0 0 0 0 0.674510 0 0 0 1.000000 0"/>
        </filter>
    </defs>
    <g fill="none" fill-rule="evenodd">
        <g>
            <g>
                <g filter="url(#67jknwssia)" transform="translate(-520 -1032) translate(490 142) translate(0 830)">
                    <g>
                        <path d="M0 0L77 0 77 77 0 77z" transform="translate(30 60)"/>
                        <path fill="#000" fill-rule="nonzero" d="M28.875 44.115c-7.508 0-22.458 3.753-22.458 11.229v5.614h44.916v-5.614c0-7.476-14.95-11.23-22.458-11.23zm-14.95 10.427c2.694-1.861 9.207-4.01 14.95-4.01 5.743 0 12.256 2.149 14.95 4.01h-29.9zM28.874 38.5c6.192 0 11.23-5.037 11.23-11.23 0-6.191-5.038-11.228-11.23-11.228s-11.23 5.037-11.23 11.229c0 6.192 5.038 11.229 11.23 11.229zm0-16.042c2.663 0 4.813 2.15 4.813 4.813s-2.15 4.812-4.813 4.812-4.813-2.15-4.813-4.812c0-2.663 2.15-4.813 4.813-4.813zm22.587 21.85c3.721 2.694 6.288 6.287 6.288 11.036v5.614h12.833v-5.614c0-6.481-11.229-10.17-19.121-11.037zM48.125 38.5c6.192 0 11.23-5.037 11.23-11.23 0-6.191-5.038-11.228-11.23-11.228-1.733 0-3.337.417-4.813 1.123 2.022 2.855 3.209 6.352 3.209 10.106 0 3.754-1.187 7.25-3.209 10.106 1.476.706 3.08 1.123 4.813 1.123z" transform="translate(30 60)"/>
                    </g>
                </g>
            </g>
        </g>
    </g>
</svg>
