<svg xmlns="http://www.w3.org/2000/svg" width="77" height="77" viewBox="0 0 77 77">
    <defs>
        <filter id="le1mk2lyya" color-interpolation-filters="auto">
            <feColorMatrix in="SourceGraphic" values="0 0 0 0 0.603922 0 0 0 0 0.635294 0 0 0 0 0.674510 0 0 0 1.000000 0"/>
        </filter>
    </defs>
    <g fill="none" fill-rule="evenodd">
        <g>
            <g>
                <g filter="url(#le1mk2lyya)" transform="translate(-920 -668) translate(490 142) translate(400 501)">
                    <g>
                        <path d="M0 0H77V77H0z" transform="translate(30 25)"/>
                        <path fill="#000" fill-rule="nonzero" d="M26.95 15.4v2.81c-2.618-1.232-5.39-1.925-8.2-1.925-4.928 0-9.857 1.887-13.63 5.622l8.163 8.162h5.428l-.385 5.082c2.387 2.386 5.467 3.541 8.585 3.541h.039V46.2h-7.7v9.625c0 3.195 2.58 5.775 5.775 5.775H53.9c4.235 0 7.7-3.465 7.7-7.7V15.4H26.95zm-.038 19.443c-1.656 0-3.235-.463-4.582-1.387l.578-7.199h-8.009l-3.965-3.966c2.349-1.386 5.043-2.117 7.816-2.117 4.119 0 7.969 1.617 10.895 4.505l5.429 5.428-2.31 2.31c-1.579 1.54-3.658 2.425-5.853 2.425zM57.75 53.9c0 2.117-1.733 3.85-3.85 3.85s-3.85-1.733-3.85-3.85v-7.7H30.8V38c1.694-.578 3.311-1.502 4.697-2.85l2.31-2.31 9.51 9.51h2.733v-2.733L32.34 21.945c-.462-.5-1.001-.847-1.54-1.27V19.25h26.95V53.9z" transform="translate(30 25)"/>
                    </g>
                </g>
            </g>
        </g>
    </g>
</svg>
