<svg xmlns="http://www.w3.org/2000/svg" width="77" height="77" viewBox="0 0 77 77">
    <defs>
        <filter id="f1cvur6xha" color-interpolation-filters="auto">
            <feColorMatrix in="SourceGraphic" values="0 0 0 0 0.603922 0 0 0 0 0.635294 0 0 0 0 0.674510 0 0 0 1.000000 0"/>
        </filter>
    </defs>
    <g fill="none" fill-rule="evenodd">
        <g>
            <g>
                <g filter="url(#f1cvur6xha)" transform="translate(-1000 -1032) translate(490 142) translate(480 830)">
                    <g>
                        <path d="M0 0H77V77H0z" transform="translate(30 60)"/>
                        <path fill="#000" fill-rule="nonzero" d="M38.5 7.7c-13.822 0-25.025 11.204-25.025 25.025 0 7.045 2.926 13.398 7.585 17.941V73.15L38.5 69.3l17.325 3.85V50.743c4.735-4.543 7.7-10.934 7.7-18.018C63.525 18.903 52.322 7.7 38.5 7.7zm11.55 58.25L38.5 63.372l-11.666 2.58V54.863c3.504 1.848 7.47 2.887 11.666 2.887 4.158 0 8.085-1.04 11.55-2.849v11.05zM38.5 51.976c-10.626 0-19.25-8.624-19.25-19.25s8.624-19.25 19.25-19.25 19.25 8.624 19.25 19.25-8.624 19.25-19.25 19.25zm-7.161-8.278L38.5 38.27l7.123 5.428-2.695-8.778 7.122-5.659h-8.74l-2.81-8.663-2.81 8.663h-8.74l7.122 5.66-2.733 8.777z" transform="translate(30 60)"/>
                    </g>
                </g>
            </g>
        </g>
    </g>
</svg>
